<?xml version="1.0" encoding="UTF-8" standalone="no"?>
<svg
   xmlns:dc="http://purl.org/dc/elements/1.1/"
   xmlns:cc="http://creativecommons.org/ns#"
   xmlns:rdf="http://www.w3.org/1999/02/22-rdf-syntax-ns#"
   xmlns:svg="http://www.w3.org/2000/svg"
   xmlns="http://www.w3.org/2000/svg"
   xmlns:xlink="http://www.w3.org/1999/xlink"
   xmlns:sodipodi="http://sodipodi.sourceforge.net/DTD/sodipodi-0.dtd"
   xmlns:inkscape="http://www.inkscape.org/namespaces/inkscape"
   sodipodi:docname="buy_buster.svg"
   inkscape:version="1.0 (4035a4fb49, 2020-05-01)"
   id="svg8"
   version="1.1"
   viewBox="0 0 508 285.75"
   height="1080"
   width="1920">
  <defs
     id="defs2" />
  <sodipodi:namedview
     inkscape:snap-global="false"
     inkscape:window-maximized="1"
     inkscape:window-y="21"
     inkscape:window-x="0"
     inkscape:window-height="779"
     inkscape:window-width="1280"
     units="px"
     showgrid="false"
     inkscape:document-rotation="0"
     inkscape:current-layer="layer7"
     inkscape:document-units="mm"
     inkscape:cy="545.16198"
     inkscape:cx="988.33788"
     inkscape:zoom="0.40607979"
     inkscape:pageshadow="2"
     inkscape:pageopacity="0.0"
     borderopacity="1.0"
     bordercolor="#666666"
     pagecolor="#ffffff"
     id="base" />
  <metadata
     id="metadata5">
    <rdf:RDF>
      <cc:Work
         rdf:about="">
        <dc:format>image/svg+xml</dc:format>
        <dc:type
           rdf:resource="http://purl.org/dc/dcmitype/StillImage" />
        <dc:title></dc:title>
        <cc:license
           rdf:resource="http://creativecommons.org/licenses/by-sa/4.0/" />
        <dc:creator>
          <cc:Agent>
            <dc:title>Roman V. Prikhodchenko (chujoii@gmail.com)</dc:title>
          </cc:Agent>
        </dc:creator>
        <dc:rights>
          <cc:Agent>
            <dc:title>Roman V. Prikhodchenko (chujoii@gmail.com)</dc:title>
          </cc:Agent>
        </dc:rights>
      </cc:Work>
      <cc:License
         rdf:about="http://creativecommons.org/licenses/by-sa/4.0/">
        <cc:permits
           rdf:resource="http://creativecommons.org/ns#Reproduction" />
        <cc:permits
           rdf:resource="http://creativecommons.org/ns#Distribution" />
        <cc:requires
           rdf:resource="http://creativecommons.org/ns#Notice" />
        <cc:requires
           rdf:resource="http://creativecommons.org/ns#Attribution" />
        <cc:permits
           rdf:resource="http://creativecommons.org/ns#DerivativeWorks" />
        <cc:requires
           rdf:resource="http://creativecommons.org/ns#ShareAlike" />
      </cc:License>
    </rdf:RDF>
  </metadata>
  <g
     sodipodi:insensitive="true"
     inkscape:label="8 background"
     id="layer8"
     inkscape:groupmode="layer" />
  <g
     inkscape:label="7 outer decorations"
     id="layer7"
     inkscape:groupmode="layer">
    <path
       transform="scale(0.26458333)"
       sodipodi:nodetypes="sccccscccsscccsccsccsccscscccccccccccccc"
       d="m -1126.0176,-41.947266 c -11.5243,-0.004 -21.7749,0.400667 -30.0429,1.271485 -43.0287,-3.096231 -11.3823,340.812841 -83.7833,385.679691 -72.4003,44.86682 91.3803,-387.752934 35.379,-379.638676 -122.6798,9.98267 -192.642,57.36194 -227.7696,88.324219 -30.6966,23.328491 192.8889,291.982527 144.461,320.783207 -48.428,28.80068 -137.6087,-343.359645 -164.7286,-301.560551 -50.9297,47.617891 -79.9329,148.940031 -15.123,227.626951 24.7175,30.58861 179.8438,67.83097 152.6172,89.93164 -27.974,22.84804 -153.7854,87.80844 -222.2149,130.98633 -10.8586,6.85164 -0.9548,25.83452 9.7247,19.79102 71.365,-40.38535 205.8971,-135.45694 223.3007,-133.21485 40.7865,0.90751 7.8881,145.52199 38.0508,190.79102 62.3542,76.32846 155.7863,74.43967 222.457,47.68164 35.8751,-16.17513 -277.4459,-198.69468 -207.8789,-233.76367 69.5671,-35.06898 197.6869,236.89343 224.0059,225.89648 78.90369,-32.13672 138.347,-120.41984 163.86523,-167.18359 21.78127,-32.35026 -404.85373,-50.19618 -337.06643,-93.61133 67.7874,-43.41516 331.36458,106.09601 352.23831,65.09766 36.62241,-63.2058 53.44793,-143.47475 66.04687,-195.36329 11.95835,-48.09826 -415.67608,153.65925 -363.21878,92.11133 52.4574,-61.54789 363.1719,-93.02333 367.17582,-122.59765 C -733.77985,18.229697 -793.88139,14.455843 -925.81445,-17.5 c -39.77212,-8.167635 -181.13825,300.78906 -250.58595,331.43164 -69.4477,30.64258 262.32033,-334.904412 214.11329,-337.787109 -39.94899,-10.409743 -113.79159,-18.074483 -163.73049,-18.091797 z m -67.8183,331.830076 c 103.3113,-66.26397 9.3368,-189.0333 0,0 z m -79.9707,36.9961 c -155.7753,-212.11034 57.7365,-155.49901 0,0 z m 140.9902,-20.98047 c 28.0176,-99.90295 151.63462,-40.51398 0,0 z m -260.1302,14.41385 c 2.2806,-224.814294 -117.0377,-22.88801 0,0 z m 297.5013,37.35763 c 109.80727,67.58534 125.89223,-55.13575 0,0 z m -55.8958,80.92955 c 106.6855,-51.91947 80.0232,120.11997 0,0 z m -116.379,26.79689 c 96.3825,64.18168 -6.1917,123.59529 0,0 z"
       style="fill-opacity:1;stroke:none;stroke-width:2;stroke-opacity:1"
       id="path4662" />
    <path
       sodipodi:nodetypes="ccc"
       id="path4654"
       d="M -344.50244,104.4712 C -453.36668,75.703047 -391.44385,-59.481182 -200.87267,7.791577 -207.91197,216.94787 -363.58338,207.09635 -344.50244,104.4712 Z"
       style="fill:none;fill-opacity:1;stroke:#7e8078;stroke-width:0.529167;stroke-opacity:1" />
    <use
       style="fill:#1ab30d;fill-opacity:1"
       height="100%"
       width="100%"
       transform="matrix(-0.50187085,0,0,0.50187085,-95.427665,22.280648)"
       id="use4683"
       xlink:href="#path4662"
       y="0"
       x="0" />
    <use
       style="fill:#1a6b0d;fill-opacity:1"
       height="100%"
       width="100%"
       transform="matrix(0.06820974,0.56998476,-0.56998476,0.06820974,486.82861,334.04356)"
       id="use4685"
       xlink:href="#path4662"
       y="0"
       x="0" />
    <use
       style="fill:#1ab30d;fill-opacity:1"
       height="100%"
       width="100%"
       transform="matrix(0.475249,0,0,0.475249,602.56274,44.862432)"
       id="use4681"
       xlink:href="#path4662"
       y="0"
       x="0" />
  </g>
  <g
     sodipodi:insensitive="true"
     style="display:inline"
     id="layer1"
     inkscape:groupmode="layer"
     inkscape:label="1 window">
    <rect
       rx="45.688171"
       ry="45.688171"
       y="34.455742"
       x="78.573959"
       height="216.83852"
       width="350.85208"
       id="rect39"
       style="fill:#dbca07;fill-opacity:1;stroke:#000000;stroke-width:0.529167;stroke-opacity:1" />
  </g>
  <g
     sodipodi:insensitive="true"
     style="display:inline"
     inkscape:label="2 upper mat"
     id="layer2"
     inkscape:groupmode="layer">
    <rect
       style="display:inline;fill:#dbca70;fill-opacity:1;stroke:#000000;stroke-width:0.481294;stroke-opacity:1"
       id="rect39-3"
       width="319.11108"
       height="197.2215"
       x="94.444481"
       y="44.264248"
       ry="45.688171"
       rx="45.688171" />
  </g>
  <g
     sodipodi:insensitive="true"
     inkscape:label="6 inner decorations"
     id="layer6"
     inkscape:groupmode="layer" />
  <g
     sodipodi:insensitive="true"
     inkscape:label="3 buttun buy"
     id="layer3"
     inkscape:groupmode="layer" />
  <g
     sodipodi:insensitive="true"
     inkscape:label="4 buttun cancel"
     id="layer4"
     inkscape:groupmode="layer" />
  <g
     sodipodi:insensitive="true"
     inkscape:label="5 text"
     id="layer5"
     inkscape:groupmode="layer" />
  <g
     sodipodi:insensitive="true"
     inkscape:label="9 buster"
     id="layer9"
     inkscape:groupmode="layer" />
</svg>
